<?xml version="1.0" encoding="UTF-8" standalone="no"?>
<!-- Created with Inkscape (http://www.inkscape.org/) -->

<svg
   width="125.39713mm"
   height="135.37773mm"
   viewBox="0 0 125.39713 135.37773"
   version="1.1"
   id="svg1"
   xml:space="preserve"
   inkscape:version="1.3.2 (091e20ef0f, 2023-11-25)"
   sodipodi:docname="ico.svg"
   inkscape:export-filename="ico.png"
   inkscape:export-xdpi="12.000001"
   inkscape:export-ydpi="12.000001"
   xmlns:inkscape="http://www.inkscape.org/namespaces/inkscape"
   xmlns:sodipodi="http://sodipodi.sourceforge.net/DTD/sodipodi-0.dtd"
   xmlns="http://www.w3.org/2000/svg"
   xmlns:svg="http://www.w3.org/2000/svg"><sodipodi:namedview
     id="namedview1"
     pagecolor="#ffffff"
     bordercolor="#000000"
     borderopacity="0.25"
     inkscape:showpageshadow="2"
     inkscape:pageopacity="0.0"
     inkscape:pagecheckerboard="0"
     inkscape:deskcolor="#d1d1d1"
     inkscape:document-units="mm"
     inkscape:zoom="0.99402667"
     inkscape:cx="262.56841"
     inkscape:cy="245.96926"
     inkscape:window-width="1920"
     inkscape:window-height="995"
     inkscape:window-x="0"
     inkscape:window-y="0"
     inkscape:window-maximized="1"
     inkscape:current-layer="layer1" /><defs
     id="defs1" /><g
     inkscape:label="Capa 1"
     inkscape:groupmode="layer"
     id="layer1"
     transform="translate(-26.091556,-20.064484)"><path
       style="fill:#ffcc00;stroke:#ffcc00"
       d="m 107.63079,155.00165 c -1.01707,-0.89725 -1.99394,-4.44509 -2.40728,-8.74285 -0.13007,-1.35245 -0.30683,-2.52933 -0.3928,-2.6153 -0.23311,-0.2331 -1.65613,0.41908 -2.1818,0.99994 -0.29314,0.32392 -0.4445,0.88461 -0.41843,1.55002 0.0315,0.80445 -0.0929,1.13619 -0.54476,1.4527 -0.8004,0.56062 -1.17884,0.51701 -1.916707,-0.22087 -2.317058,-2.31706 -0.689747,-6.38079 3.192387,-7.97202 1.53526,-0.62928 1.56304,-0.65918 1.52542,-1.64134 -0.0697,-1.81907 -0.92729,-13.16551 -1.01762,-13.46353 -0.0608,-0.20048 -1.07248,-0.091 -3.22049,0.34846 -2.517455,0.51506 -4.040236,0.65026 -7.762055,0.68918 -2.546605,0.0266 -5.2255,-0.0409 -5.953097,-0.15018 l -1.322914,-0.19861 0.0114,6.6809 c 0.016,9.39084 -0.0546,8.76011 1.024424,9.15028 1.424904,0.51525 4.434206,3.48025 5.46394,5.3835 0.820217,1.51598 0.904864,1.87531 0.906604,3.84825 0.002,1.97319 -0.0598,2.2366 -0.659544,2.82464 -0.673487,0.66032 -0.998774,0.77478 -2.043708,0.71912 -0.731577,-0.039 -1.225924,-0.95382 -1.820001,-3.36812 -0.503647,-2.0468 -1.222274,-3.64963 -2.033068,-4.53459 -0.744417,-0.8125 -0.982444,-0.74836 -0.981804,0.26459 2.9e-4,0.47294 -0.19552,1.92806 -0.435137,3.23361 -0.35005,1.90725 -0.580127,2.51818 -1.170804,3.10885 -0.867037,0.86704 -1.770881,0.93691 -2.696925,0.20848 -0.829237,-0.65228 -1.253894,-2.78865 -1.253894,-6.30803 0,-1.76729 -0.0898,-2.42415 -0.330727,-2.41991 -0.645897,0.0113 -2.622015,1.05179 -3.744249,1.97138 -1.273484,1.04353 -1.983408,1.16479 -2.630855,0.44937 -0.707397,-0.78167 -0.521497,-1.31913 0.973304,-2.81393 1.387501,-1.38752 3.069422,-2.41013 4.981873,-3.02901 0.895594,-0.28982 0.980994,-0.40799 1.125411,-1.55747 0.34352,-2.73409 1.288374,-12.42688 1.315794,-13.49805 l 0.0292,-1.14169 -2.288418,-0.73998 C 65.901825,119.24904 53.624786,107.14461 46.616011,91.586565 43.031699,83.630121 41.012217,75.569866 40.711427,68.019894 l -0.158115,-3.96875 -2.918154,-1.719792 C 33.918926,60.141219 26.693074,55.051695 26.325951,54.36572 c -0.474641,-0.886874 -0.196075,-2.376047 0.544223,-2.909337 0.847677,-0.610644 9.042828,-2.70482 12.832291,-3.279144 1.600729,-0.242604 3.163935,-0.489586 3.473792,-0.54885 0.40138,-0.07677 0.735856,-0.546064 1.163219,-1.632082 1.104509,-2.806792 3.696825,-7.586718 5.418456,-9.990995 2.291164,-3.199636 4.234306,-5.333056 6.830321,-7.499166 2.868468,-2.393447 4.167872,-3.25111 7.253574,-4.787664 15.153403,-7.545787 34.444295,-3.034662 43.289973,10.123239 1.90426,2.832571 3.31398,5.869978 5.73189,12.350049 5.42295,14.533687 10.793,22.690993 16.9731,25.782771 2.29844,1.14986 4.11205,1.390704 6.28342,0.834424 2.18516,-0.559811 3.73506,-1.504804 6.0065,-3.662221 2.18191,-2.07239 2.86564,-2.239928 4.10074,-1.004826 0.67782,0.677819 0.8686,0.744701 1.41461,0.495922 1.62319,-0.739574 3.84662,0.587647 3.84662,2.296145 0,2.157162 -5.87139,15.183561 -9.65806,21.427574 -9.19004,15.153881 -20.62588,25.460901 -33.36298,30.069721 -1.22249,0.44235 -2.22271,0.89269 -2.22271,1.00077 0,0.10807 0.29411,1.79345 0.65358,3.74529 0.35947,1.95183 0.89837,5.0966 1.19756,6.98837 0.81004,5.122 0.70904,4.81935 1.66977,5.00363 3.03159,0.58151 7.55822,4.87139 8.6417,8.18972 1.04318,3.19492 -0.26054,6.62394 -2.51843,6.62394 -1.3609,0 -1.91663,-0.73257 -2.60782,-3.43767 -0.33119,-1.29618 -0.84764,-2.83295 -1.14768,-3.41503 -0.56386,-1.09394 -1.81641,-2.44067 -2.05142,-2.20567 -0.0735,0.0735 0.001,1.13558 0.16614,2.36025 0.16484,1.22467 0.23233,3.35625 0.14999,4.73686 -0.12857,2.15554 -0.23109,2.57609 -0.72566,2.97657 -0.72966,0.59084 -1.37472,0.5919 -2.04187,0.003 z m -8.381354,-35.64911 c 1.609484,-0.33556 4.169334,-1.10188 5.688524,-1.70293 4.58315,-1.81328 4.58347,-1.80355 -0.0548,-1.6781 -4.25832,0.11518 -7.617892,-0.14289 -7.696752,-0.59121 -0.13173,-0.74887 11.449052,-1.6081 13.243402,-0.98259 0.74261,0.25888 0.97589,0.15817 3.26835,-1.41091 1.35776,-0.92933 2.82585,-1.98102 3.26241,-2.33708 l 0.79375,-0.64739 -0.66146,-0.14861 c -0.3638,-0.0817 -2.02453,-0.33002 -3.69052,-0.55174 -1.66598,-0.22172 -3.1403,-0.51438 -3.27627,-0.65035 -0.13598,-0.13597 -0.16844,-0.45253 -0.0722,-0.70345 0.1605,-0.41827 0.60262,-0.44248 5.31316,-0.29095 l 5.13809,0.16529 3.70946,-3.88032 c 2.04021,-2.13418 3.66221,-3.92758 3.60445,-3.985337 -0.0578,-0.0578 -1.92614,-0.33816 -4.15195,-0.623117 -3.95956,-0.506927 -4.53675,-0.710717 -4.38505,-1.548229 0.0611,-0.33711 0.86661,-0.396875 5.3494,-0.396875 h 5.27753 l 2.32037,-3.175 c 1.2762,-1.746249 2.32163,-3.342524 2.32317,-3.547276 0.002,-0.313408 -0.81304,-0.344024 -5.15657,-0.193612 -4.39347,0.152142 -5.15937,0.122189 -5.15937,-0.201772 0,-0.856234 5.27371,-2.009153 9.21157,-2.013801 l 2.82697,-0.0033 1.65796,-2.840934 1.65796,-2.840935 -4.1715,-0.174805 c -4.43714,-0.185936 -9.76784,-0.8745 -10.32039,-1.333082 -0.40686,-0.337664 -0.4331,-0.912807 -0.0524,-1.148105 0.15456,-0.09553 3.10136,-0.140622 6.54843,-0.100215 3.44708,0.04041 6.9818,0.08177 7.85492,0.09192 l 1.5875,0.01845 1.48472,-3.042708 c 0.8166,-1.67349 1.44737,-3.086625 1.40172,-3.1403 -0.0457,-0.05368 -0.55281,0.303512 -1.12701,0.79375 -4.26979,3.645457 -11.50887,4.177649 -17.27553,1.270035 -2.4516,-1.236123 -4.44518,-2.655225 -6.21157,-4.421619 l -1.55753,-1.557524 -2.6449,-0.17894 c -2.703,-0.18287 -5.55299,-0.727036 -5.96486,-1.138905 -0.12643,-0.126433 -0.13875,-0.377331 -0.0274,-0.557551 0.15503,-0.250835 0.66431,-0.267743 2.1718,-0.0721 2.17914,0.282806 5.01199,0.353527 5.01199,0.125124 0,-0.08073 -0.45528,-0.901645 -1.01173,-1.824254 -0.55645,-0.922608 -1.46825,-2.702024 -2.02623,-3.954257 l -1.0145,-2.276787 -1.08262,-0.0019 c -2.42801,-0.0042 -4.70275,-0.345142 -4.84919,-0.726767 -0.24528,-0.639187 0.48047,-0.850557 2.93497,-0.854801 1.76237,-0.003 2.31305,-0.08606 2.22094,-0.334781 -0.0674,-0.181901 -0.86383,-2.428667 -1.76993,-4.992815 l -1.64746,-4.662085 -1.36723,-0.16426 c -0.75198,-0.09034 -2.64296,-0.165295 -4.20219,-0.16656 -2.527317,-0.0021 -2.864577,-0.05764 -3.107894,-0.512299 -0.695037,-1.29869 0.196887,-1.606667 4.653014,-1.606667 1.6553,0 3.00963,-0.09965 3.00963,-0.221435 0,-0.448194 -3.24801,-6.70228 -3.53726,-6.81104 -0.16456,-0.06188 -2.04845,-0.398578 -4.186414,-0.748227 -3.940729,-0.64448 -4.447116,-0.784625 -4.447116,-1.230746 0,-0.323014 1.914621,-0.313239 4.865653,0.02484 1.293677,0.148208 2.417157,0.20445 2.496627,0.124982 0.0795,-0.07947 -1.16205,-1.422095 -2.758927,-2.983617 -5.666177,-5.540746 -11.574224,-7.980083 -19.358409,-7.992781 -5.28477,-0.0086 -9.547896,1.041705 -14.062169,3.464567 -9.685033,5.198056 -16.224094,14.287687 -18.570319,25.813753 -0.807737,3.968087 -0.990914,11.836096 -0.383666,16.4796 2.422858,18.527101 13.351595,35.81306 27.526034,43.53801 8.073885,4.40019 16.24051,5.71587 24.626722,3.96745 z m -5.035523,-8.89781 c -5.362477,-0.84272 -9.783043,-5.23121 -11.429244,-11.346304 -0.583947,-2.169187 -0.659677,-6.851243 -0.1213,-7.499952 0.428637,-0.51647 1.446374,-0.576233 1.818951,-0.106811 0.14438,0.181901 0.342447,1.104636 0.440157,2.050521 0.383457,3.712189 1.684471,6.721776 3.975476,9.196356 3.053045,3.29766 7.986615,4.22408 10.487373,1.96929 1.852834,-1.67059 1.023294,-4.48751 -2.052258,-6.969078 -0.966887,-0.780144 -1.843111,-1.597037 -1.947181,-1.815318 -0.961604,-2.016949 -1.055574,-2.423955 -0.720874,-3.122275 0.386487,-0.80639 1.429191,-1.261034 2.348515,-1.024016 1.474861,0.380242 4.792712,2.947722 6.683742,5.172132 0.74444,0.875675 0.79296,0.890874 2.42557,0.759824 0.91626,-0.07355 2.12224,-0.356584 2.67995,-0.628966 0.89893,-0.439031 1.02298,-0.617319 1.09299,-1.570817 0.10913,-1.486431 -0.69238,-2.220782 -4.3123,-3.950952 -1.60073,-0.765081 -3.30266,-1.760923 -3.78207,-2.212981 -1.75513,-1.655 -1.960677,-3.630272 -0.44943,-4.318842 0.55282,-0.251885 0.92222,-0.210734 2.05583,0.229018 4.13217,1.60296 7.20408,2.195524 8.74517,1.686921 1.06427,-0.351243 2.29404,-1.641682 2.29404,-2.407222 0,-1.123926 -1.61336,-2.369396 -5.66032,-4.369613 -3.82693,-1.891468 -5.45218,-3.071271 -5.45218,-3.957843 0,-0.215985 0.25321,-0.645915 0.5627,-0.955399 0.48777,-0.487777 0.78054,-0.545213 2.19881,-0.431368 2.94623,0.236495 8.85788,3.074535 11.12344,5.340097 2.22624,2.22624 2.21907,5.146081 -0.0192,7.806092 -0.71418,0.848756 -2.92576,2.135377 -3.67051,2.135377 -0.53116,0 -0.51623,0.372879 0.0331,0.827499 1.28183,1.060762 1.82368,4.475645 1.01663,6.40718 -0.21816,0.522117 -0.83259,1.385249 -1.36541,1.918066 -1.40883,1.408824 -3.00997,2.032024 -5.58013,2.171894 l -2.18282,0.11879 v 1.28439 c 0,4.98534 -5.26498,8.55286 -11.237267,7.61431 z M 76.292925,57.778946 c -0.617267,-0.468499 -1.004094,-1.610155 -1.004094,-2.963392 0,-3.418314 -2.296035,-6.503624 -4.841763,-6.506128 -1.268321,-0.0012 -2.263515,0.510082 -3.307949,1.699629 -0.980237,1.116433 -1.277184,2.417053 -0.848437,3.716153 0.26377,0.799253 0.24564,1.058634 -0.11219,1.604746 -0.672604,1.026542 -1.593061,0.858349 -2.458355,-0.449215 -0.585647,-0.884983 -0.747037,-1.470731 -0.823744,-2.989758 -0.11435,-2.26449 0.434077,-3.664687 2.124398,-5.423813 5.28176,-5.496772 14.007289,-1.263722 14.430326,7.000643 0.0935,1.825724 0.024,2.280322 -0.505627,3.307292 -0.495627,0.96114 -0.766954,1.20562 -1.407711,1.268426 -0.436557,0.04279 -0.996744,-0.07627 -1.244854,-0.264583 z m -34.505207,-3.24982 c 0.214584,-1.017006 0.352,-1.887256 0.305368,-1.933888 -0.04663,-0.04663 -0.752761,0.1094 -1.569176,0.346739 -0.816414,0.237338 -2.753302,0.697491 -4.304193,1.022562 l -2.819804,0.591038 3.679202,3.131091 3.679202,3.131092 0.319624,-2.219766 c 0.175792,-1.220872 0.495192,-3.051862 0.709777,-4.068868 z"
       id="path1" /></g></svg>
